<?xml version="1.0" encoding="utf-8"?>
<!-- Generator: Adobe Illustrator 22.0.1, SVG Export Plug-In . SVG Version: 6.00 Build 0)  -->
<svg version="1.1" id="Layer_1" xmlns="http://www.w3.org/2000/svg" xmlns:xlink="http://www.w3.org/1999/xlink" x="0px" y="0px"
	 viewBox="0 0 595.3 595.3" style="enable-background:new 0 0 595.3 595.3;" xml:space="preserve">
<style type="text/css">
	.st0{display:none;}
	.st1{display:inline;}
	.st2{fill:#C7D530;}
	.st3{fill:#FFFFFF;stroke:#000000;stroke-width:6.3577;}
	.st4{stroke:#000000;stroke-miterlimit:10;}
	.st5{stroke:#000000;stroke-width:3.2077;}
	.st6{stroke:#000000;stroke-width:6.0846;}
</style>
<g id="image_elements">
</g>
<g id="_x26_" class="st0">
	<g class="st1">
		<path class="st2" d="M491.2,332.3h-4l7.8,21.5l-0.8,2.2c-0.4,1.3-1.1,2.3-1.7,2.8c-0.7,0.5-1.7,0.8-2.9,0.8l-1-0.1v3l1.4,0.3
			l0.7,0.1c2.9,0,5.1-1.8,6.4-5.5l8.8-25.1h-3.9l-5.1,16.3L491.2,332.3z M470.8,337.1c1-1.4,2.4-2.1,4.2-2.1c2.2,0,4,1.1,5.1,3.1
			v9.9c-1.1,2.1-2.9,3.2-5.2,3.2c-1.8,0-3.2-0.7-4.2-2.1c-1-1.4-1.5-3.3-1.5-5.8C469.3,340.6,469.8,338.6,470.8,337.1 M467.9,351.4
			c1.6,2.1,3.7,3,6.2,3c2.6,0,4.6-0.9,6.1-2.6v1.9c0,1.9-0.5,3.3-1.5,4.3c-1,1-2.4,1.5-4.2,1.5c-2.3,0-4.3-1-5.8-2.9l-2,2.2
			c0.8,1.2,2,2.1,3.4,2.8c1.5,0.6,3,1,4.6,1c2.8,0,5-0.8,6.7-2.4c1.7-1.6,2.5-3.8,2.5-6.6v-21.2h-3.4l-0.2,2.4
			c-1.5-1.9-3.6-2.8-6.2-2.8c-2.6,0-4.6,1-6.3,3c-1.6,2-2.3,4.7-2.3,8C465.5,346.5,466.3,349.3,467.9,351.4 M447.4,337.1
			c1.2-1.4,2.6-2.1,4.5-2.1s3.4,0.7,4.5,2.2c1.2,1.5,1.7,3.4,1.7,5.8c0,2.7-0.5,4.7-1.7,6.3c-1.1,1.5-2.6,2.2-4.5,2.2
			s-3.4-0.7-4.5-2.1c-1.1-1.4-1.7-3.4-1.7-5.8C445.7,340.7,446.3,338.6,447.4,337.1 M442,343.2c0,3.4,0.9,6.1,2.8,8.1
			c1.8,2.1,4.2,3,7.1,3c2,0,3.7-0.4,5.2-1.4c1.5-0.9,2.7-2.2,3.5-3.9s1.3-3.6,1.3-5.7V343c0-3.4-0.9-6.2-2.8-8.1
			c-1.8-2.1-4.2-3-7.1-3c-1.9,0-3.6,0.4-5.1,1.3c-1.5,0.9-2.7,2.2-3.5,3.9c-0.8,1.7-1.3,3.6-1.3,5.7L442,343.2L442,343.2L442,343.2z
			 M437,323.2h-3.8V354h3.8V323.2z M414,337.1c1.2-1.4,2.6-2.1,4.5-2.1s3.4,0.7,4.5,2.2c1.2,1.5,1.7,3.4,1.7,5.8
			c0,2.7-0.5,4.7-1.7,6.3c-1.1,1.5-2.6,2.2-4.5,2.2s-3.4-0.7-4.5-2.1c-1.1-1.4-1.7-3.4-1.7-5.8C412.3,340.7,412.9,338.6,414,337.1
			 M408.6,343.2c0,3.4,0.9,6.1,2.8,8.1c1.8,2.1,4.2,3,7.1,3c2,0,3.7-0.4,5.2-1.4c1.5-0.9,2.7-2.2,3.5-3.9s1.3-3.6,1.3-5.7V343
			c0-3.4-0.9-6.2-2.8-8.1c-1.8-2.1-4.2-3-7.1-3c-1.9,0-3.6,0.4-5.1,1.3c-1.5,0.9-2.7,2.2-3.5,3.9c-0.8,1.7-1.3,3.6-1.3,5.7
			L408.6,343.2L408.6,343.2L408.6,343.2z M386.8,332.3V354h3.8v-15.5c0.5-1.1,1.3-1.9,2.1-2.5c0.9-0.6,2-1,3.1-1
			c1.5,0,2.6,0.4,3.3,1.2c0.7,0.7,1.1,1.9,1.1,3.5v14.4h3.8v-14.5c0-5.2-2.3-7.8-7-7.8c-2.7,0-4.8,1.1-6.5,3.1l-0.1-2.8L386.8,332.3
			L386.8,332.3L386.8,332.3z M367.9,323.2h-3.7V354h3.8v-15.5c0.5-1.1,1.3-1.9,2.1-2.5c0.9-0.6,2-1,3.1-1c1.5,0,2.6,0.4,3.3,1.2
			c0.7,0.7,1.1,1.9,1.1,3.5v14.4h3.8v-14.5c0-5.2-2.3-7.8-7-7.8c-2.6,0-4.7,1-6.4,3L367.9,323.2L367.9,323.2L367.9,323.2z
			 M347,349.4c-1.1-1.3-1.5-3.3-1.5-5.8v-0.7c0-2.6,0.5-4.6,1.5-5.9c1.1-1.3,2.5-2.1,4.4-2.1c1.4,0,2.6,0.4,3.6,1.3
			c1,0.9,1.5,2.1,1.6,3.5h3.5c-0.1-2.3-1-4.2-2.6-5.7c-1.6-1.4-3.7-2.1-6.1-2.1c-2,0-3.7,0.4-5.2,1.3c-1.4,0.9-2.6,2.1-3.3,3.8
			c-0.8,1.6-1.2,3.5-1.2,5.6v0.6c0,3.4,0.9,6.2,2.6,8.1c1.8,2,4.1,2.9,7.1,2.9c1.4,0,2.9-0.4,4.2-1c1.3-0.6,2.4-1.6,3.1-2.7
			c0.8-1.2,1.3-2.3,1.3-3.6h-3.5c-0.1,1.2-0.6,2.2-1.6,3c-1,0.8-2.1,1.2-3.5,1.2C349.5,351.4,348.1,350.7,347,349.4 M333.1,336.5
			c0.9,1.1,1.4,2.5,1.5,4.4v0.3h-10.9c0.3-2,0.9-3.5,1.9-4.6c1-1.1,2.2-1.6,3.8-1.6C331,334.9,332.2,335.4,333.1,336.5 M338.1,350.2
			l-2.2-1.8c-0.7,0.9-1.5,1.6-2.4,2.1c-0.9,0.5-2.1,0.8-3.3,0.8c-1.9,0-3.4-0.6-4.6-2s-1.8-3-1.9-5.2h14.7v-1.5c0-3.5-0.8-6.2-2.3-8
			c-1.6-1.9-3.8-2.8-6.6-2.8c-1.7,0-3.3,0.4-4.8,1.4c-1.5,1-2.6,2.3-3.5,3.9c-0.8,1.7-1.3,3.6-1.3,5.8v0.7c0,3.2,0.9,5.8,2.8,7.8
			c1.9,2,4.2,2.9,7.1,2.9C333.6,354.4,336.3,353.1,338.1,350.2 M319.1,324.8h-22.6v3.1h9.4V354h3.8v-26.1h9.4L319.1,324.8
			L319.1,324.8z M269.7,328.6c0.6-0.7,1.5-1.1,2.6-1.1c1,0,1.9,0.3,2.5,0.9c0.6,0.6,1,1.3,1,2.2c0,0.8-0.2,1.5-0.5,2.1
			c-0.4,0.6-1,1.2-1.9,1.9l-2.3,1.7c-1.6-2-2.4-3.6-2.4-4.8C268.8,330.3,269,329.3,269.7,328.6 M267.9,349.9c-1-1-1.5-2.2-1.5-3.8
			c0-1.7,1.1-3.4,3.4-5.1l0.6-0.4l7.1,8.5c-1.6,1.5-3.4,2.2-5.4,2.2C270.3,351.4,268.9,350.9,267.9,349.9 M265.2,352.2
			c1.7,1.5,4,2.2,6.9,2.2c1.3,0,2.8-0.3,4-0.7c1.3-0.4,2.5-1.2,3.5-2.1l2,2.3h4.5l-4.2-5c1.6-2.2,2.5-5.1,2.5-8.5h-3.4
			c0,2.1-0.4,4-1.3,5.8l-6.5-7.8l2.1-1.6c1.5-1.1,2.5-2.1,3.1-3.1c0.6-1,0.9-2.1,0.9-3.3c0-1.8-0.6-3.2-2-4.5
			c-1.3-1.2-2.9-1.8-5-1.8c-2.2,0-4,0.6-5.4,1.9c-1.3,1.3-2,3-2,5.2c0,1,0.2,1.9,0.6,2.9c0.4,1,1.3,2.2,2.6,3.8
			c-2.2,1.6-3.7,3-4.5,4.1c-0.8,1.2-1.2,2.5-1.2,3.8C262.6,348.7,263.5,350.6,265.2,352.2"/>
	</g>
</g>
<g>
	
		<image style="overflow:visible;opacity:0.75;" width="182" height="180" xlink:href="A5D2B3D8.png"  transform="matrix(1 0 0 1 100 217.281)">
	</image>
	<g>
		<g>
			<polygon points="195.1,272.2 190.3,273.6 188.2,279.1 183.4,283.5 183.4,290.1 188.2,290.1 190.3,294.5 194.4,294.9 197.8,290.1 
				202.7,292.1 206.1,285.9 206.8,281.5 206.1,274.9 198.9,274.9 			"/>
			<path d="M221.2,244l3.1-1v-2.4c0,0,0-2.4-3.1-4.1l-10-5.5v6.9l7.6,3.4L221.2,244z"/>
			<polygon points="169.6,267.7 165.2,267 161.4,268.4 162.4,277.7 161.4,281.5 161.4,284.2 169.6,284.6 175.2,287.7 178.9,280.1 
				183.4,274.6 180.3,271.5 175.8,267 			"/>
			<polygon points="211.9,272.9 212.3,277.3 214.3,282.5 221.2,279.1 224.3,273.9 218.8,269.4 208.5,265 205.1,267.7 			"/>
			<polygon points="206.1,247.4 209.5,259.1 217.8,262.9 225.3,261.2 221.2,250.5 217.8,250.5 217.8,246.4 211.2,244 			"/>
			<path d="M146.3,256.7l-3.1,0.7l-1.4,5.2l-6.5,3.4c0,1,2.4,11.3,2.4,11.3h5.8h5.5l3.4-5.2l4.5-4.5l0.7-4.5h-6.5L146.3,256.7z"/>
			<polygon points="160.4,356.4 167.2,357.8 169.3,356.4 169.6,351.9 172.4,348.2 172.4,345.4 169.3,341.3 167.2,338.2 162.8,338.2 
				160.4,341.6 156.9,341.3 154.9,344.7 154.2,348.2 154.9,355.7 			"/>
			<polygon points="181,312.1 183.1,310.3 178.9,305.9 181.3,299.7 177.6,295.9 173.8,295.9 170.7,295.9 166.2,296.9 166.2,301.1 
				162.8,305.9 164.8,310.3 169.6,312.7 173.8,316.2 			"/>
			<polygon points="153.1,304.5 158.6,298 161.4,296.9 161.7,292.5 158.6,290.1 158,285.9 145.2,283.5 143.2,284.9 142.8,292.1 
				139.7,294.2 139.1,298 142.1,301.1 148.3,305.9 			"/>
			<polygon points="153.1,333 160.4,331 165.2,331 165.2,324.8 166.2,319.3 161.7,317.2 156.2,311 152.1,313.4 152.1,320.7 
				148.3,323.1 152.8,327.2 			"/>
			<polygon points="117.1,306.9 113.3,315.5 115.3,321.7 121.2,323.8 122.6,319.6 120.5,314.1 120.1,308.6 			"/>
			<polygon points="239.1,278.4 237.4,284.2 235.7,285.9 239.8,287.7 242.5,293.2 244.6,295.9 248.4,292.5 250.1,287.7 249.4,282.5 
				244.9,279.1 			"/>
			<polygon points="183.4,263.6 188.2,265 194.1,266 201.3,258.1 197.8,254 194.7,247.4 188.2,249.5 181,249.5 181.3,255.3 
				178.9,260.5 			"/>
			<path d="M145.9,246.4l1.4-4.5l4.5-3.4l-1.4-3.4l-3.8-1c-2.1,1-4.1,2.4-6.2,3.8c0,0-0.3,0-0.3,0.3l-1.4,5.8L145.9,246.4z"/>
			<path d="M124.3,258.1l2.1,6.2l3.4-0.7l3.4-3.8l2.1-0.7l3.1-2.4l-1-4.8v-5.5l-5.5-2.1c-1,1-2.1,1.7-2.7,2.7l-2.4,3.1l-1,0.7
				c-1,1-1.7,2.1-2.8,3.1L124.3,258.1z"/>
			<polygon points="202,315.2 206.1,315.2 207.8,306.9 206.1,301.1 200.2,299.7 195.1,299.7 184.8,304.5 190.3,310.3 188.6,314.8 
				192,317.2 190.3,319.6 195.1,320.7 			"/>
			<path d="M169.3,243l-2.8-2.1l-5.5,3.4l-5.8-1.4l-2.4,2.4v3.8l-0.3,6.9h5.8l3.8,3.8l3.1,0.7l3.4-4.5c0,0,3.4-4.5,1.4-6.2
				c0,0-3.1-2.1-2.1-2.1C169.3,247.4,169.3,243,169.3,243z"/>
			<polygon points="140.1,352.3 137.3,349.2 134.2,350.2 135.6,355.4 145.2,362.2 150.4,360.2 148.3,355.7 148.3,353 			"/>
			<polygon points="127.7,296.9 132.9,296.9 134.2,288.7 136.3,283.5 133.2,280.1 127.7,280.4 124.3,280.4 122.6,284.6 118.8,288 
				122.6,292.1 122.6,299.7 			"/>
			<path d="M136.3,320.3l3.1,2.8l0.7-1.7l0.7-6.5h2.7c1.4,0,1.4-4.1,1.4-4.1l-4.1-1l-0.3-4.1l-4.5-3.1l-8.9,3.8v5.2l2.7,3.1
				l-1.7,4.8L136.3,320.3z"/>
			<polygon points="178.9,338.2 184.8,340.3 188.2,338.2 190.3,331 192,328.6 182.7,321.7 175.8,324.8 172.4,324.8 173.1,331.7 
				173.1,338.2 			"/>
			<polygon points="200.2,341.3 206.1,341.3 210.6,343.7 213,341.3 213.7,334.4 217.4,332.3 217.8,328.2 211.9,325.5 208.5,322.4 
				202.7,325.5 196.5,327.2 196.8,339.6 			"/>
			<polygon points="136.3,342.3 139.7,342.7 145.2,348.2 148.3,345.4 147,341.3 149.4,334.4 143.2,331 142.1,328.2 133.2,328.6 
				131.1,331 133.9,336.8 			"/>
			<path d="M182.4,368.8l-4.8-6.2l-8.2,1l-5.2-1.4l-2.4,4.5l5.5,3.1l3.1,3.8c4.1,0.7,8.3,1.4,12.4,1.4L182.4,368.8z"/>
			<path d="M125.6,342.7l3.4,0.7l0.3-3.4l-3.8-3.4l1.7-4.5l-3.1-1.4l-0.7,0.3l-5.5-4.1v7.6l1.7,3.1c0.7,1,1,1.7,1.7,2.8L125.6,342.7
				z"/>
			<path d="M112.6,304.5l4.5-4.8l0.7-2.8l-2.8-3.8l-0.3-4.5h-3.1l-2.8,3.4c-0.3,2.4-0.3,5.2-0.3,7.6L112.6,304.5z"/>
			<path d="M247.7,341.3l-3.1-6.9l-6.2-1.4l-1.7-1c0,0-1.7-1-4.8,0.3l-9.6,4.5l4.1,11l10.7-2.4h7.6L247.7,341.3z"/>
			<polygon points="190.3,361.6 195.1,360.2 195.8,354 198.9,353.3 196.8,348.5 193.4,347.8 190.3,344.7 184.8,344.7 183.4,349.2 
				180.3,348.2 178.9,350.2 178.9,357.4 182.7,361.2 188.2,360.2 			"/>
			<path d="M259,289l-6.2,6.9l-2.1,2.8l2.8,5.8l3.4,2.4l1.4,0.3c0,0,1.4,0.3,1.4-3.1v-6.5C260.1,294.9,259.7,291.8,259,289z"/>
			<path d="M113.6,281.5l2.1,1l4.1-2.1l0.7-3.1l2.4-3.8l-0.7-2.4l-1.7-3.4l-5.2-0.7l-2.8,6.5c-0.7,1.4-1,3.1-1.4,4.5L113.6,281.5z"
				/>
			<polygon points="225,353.3 218.8,360.2 217.4,362.9 224.3,363.6 232.9,355.4 			"/>
			<path d="M159.3,369.8l-0.3-3.1l-5.8-2.7l-2.4,1l0.3,2.4c2.1,1,4.1,2.1,6.5,2.8h1.7L159.3,369.8L159.3,369.8z"/>
			<polygon points="235,297.3 233.9,291.4 228.1,289.7 226,285.6 223.3,284.6 218.1,288.3 214,294.2 218.1,300.7 221.6,298.3 
				232.9,302.8 			"/>
			<polygon points="224.3,325.5 229.1,316.2 231.9,315.2 230.2,308.3 221.2,305.5 218.8,310 213,315.2 216.1,320.7 219.8,320.7 			
				"/>
			<polygon points="217.1,354 218.8,348.2 213,345.4 208.5,350.2 204,351.9 206.1,360.2 211.9,360.2 			"/>
			<polygon points="192,366.7 196.5,369.8 200.2,372.9 208.5,370.8 208.8,366.7 204.4,363.3 202.7,366 195.8,364.3 			"/>
			<polygon points="247,327.2 249.4,322.4 253.2,321.7 258.3,313.4 251.5,311.7 246.7,305.5 242.2,310.3 237.7,310 237,315.2 
				235,320.7 239.4,324.8 			"/>
			<polygon points="240.8,259.8 237.4,262.9 232.6,262.9 230.8,268.7 231.9,272.9 236.3,270.8 239.4,272.9 244.2,272.9 246,269.4 
				244.2,265.7 			"/>
			<path d="M197.8,232h-3.4l-1.4,1.4l1,1.4l0.3,5.8l5.2,2.1l5.2-2.1l-1.4-5.8l-1.4-8.3c-0.3,0-0.3,0-0.7-0.3L197.8,232z"/>
			<polygon points="178.9,233 170.3,234.4 170.3,237.5 174.8,238.8 174.8,243.3 177.2,243.3 181.3,241.9 187.5,239.9 187.5,234.4 
				187.5,231.6 183.4,226.5 177.2,226.5 			"/>
			<path d="M234.6,244l-4.8,0.7l-1.4,2.8l0.7,2.8l5.2,5.2l2.8-3.8l0.3-4.8C236.3,245.7,235.7,244.7,234.6,244z"/>
			<path d="M156.9,233v6.2l5.5-4.5l2.4-1l3.4-2.4l-2.7-4.5c-3.4,0.7-6.9,2.1-10.3,3.4L156.9,233z"/>
		</g>
	</g>
</g>
<g>
	
		<image style="overflow:visible;opacity:0.75;" width="124" height="125" xlink:href="A5D2B3D9.png"  transform="matrix(1 0 0 1 283 324.281)">
	</image>
	<g>
		<g>
			<rect x="372.6" y="382.5" transform="matrix(0.2584 -0.966 0.966 0.2584 -98.1016 651.6592)" width="5.5" height="14.4"/>
			<rect x="364.3" y="357.8" transform="matrix(0.8659 -0.5002 0.5002 0.8659 -130.5491 234.1739)" width="14.4" height="5.5"/>
			<rect x="340.7" y="339.6" transform="matrix(0.2587 -0.966 0.966 0.2587 -72.7357 589.889)" width="14.4" height="5.5"/>
			<polygon points="312.2,341.2 316.9,338.4 324.1,350.9 319.4,353.7 			"/>
			<rect x="372.6" y="388.4" transform="matrix(0.2585 -0.966 0.966 0.2585 -96.2552 656.9264)" width="14.4" height="5.5"/>
			<rect x="372.9" y="350.9" transform="matrix(0.8661 -0.4999 0.4999 0.8661 -128.727 235.7293)" width="5.5" height="14.4"/>
			<rect x="346.3" y="330.4" transform="matrix(0.2583 -0.9661 0.9661 0.2583 -67.2645 587.678)" width="5.5" height="14.4"/>
			<rect x="308.5" y="339.6" transform="matrix(0.8657 -0.5005 0.5005 0.8657 -128.9671 204.0054)" width="14.4" height="5.5"/>
			<rect x="372.6" y="382.5" transform="matrix(0.2584 -0.966 0.966 0.2584 -98.1016 651.6592)" width="5.5" height="14.4"/>
			<rect x="364.3" y="357.8" transform="matrix(0.8659 -0.5002 0.5002 0.8659 -130.5491 234.1739)" width="14.4" height="5.5"/>
			<rect x="340.7" y="339.6" transform="matrix(0.2587 -0.966 0.966 0.2587 -72.7357 589.889)" width="14.4" height="5.5"/>
			<polygon points="312.2,341.2 316.9,338.4 324.1,350.9 319.4,353.7 			"/>
			<rect x="297.3" y="362.6" transform="matrix(0.259 -0.9659 0.9659 0.259 -134.837 563.879)" width="5.5" height="14.4"/>
			<rect x="296.5" y="396.6" transform="matrix(0.866 -0.5001 0.5001 0.866 -159.0243 205.4569)" width="14.4" height="5.5"/>
			<rect x="320.1" y="414.8" transform="matrix(0.2586 -0.966 0.966 0.2586 -160.6779 625.8192)" width="14.4" height="5.5"/>
			<rect x="354.7" y="406.6" transform="matrix(0.866 -0.5 0.5 0.866 -159.0165 234.1691)" width="5.5" height="14.4"/>
			<rect x="372.6" y="388.4" transform="matrix(0.2585 -0.966 0.966 0.2585 -96.2552 656.9264)" width="14.4" height="5.5"/>
			<rect x="372.9" y="350.9" transform="matrix(0.8661 -0.4999 0.4999 0.8661 -128.727 235.7293)" width="5.5" height="14.4"/>
			<rect x="346.3" y="330.4" transform="matrix(0.2583 -0.9661 0.9661 0.2583 -67.2645 587.678)" width="5.5" height="14.4"/>
			<rect x="308.5" y="339.6" transform="matrix(0.8657 -0.5005 0.5005 0.8657 -128.9671 204.0054)" width="14.4" height="5.5"/>
			<rect x="288.6" y="365.9" transform="matrix(0.2588 -0.9659 0.9659 0.2588 -136.8428 558.9545)" width="14.4" height="5.5"/>
			<rect x="297.2" y="394.6" transform="matrix(0.8661 -0.4999 0.4999 0.8661 -160.6969 203.7609)" width="5.5" height="14.4"/>
			<rect x="323.9" y="414.9" transform="matrix(0.2581 -0.9661 0.9661 0.2581 -165.4737 628.6777)" width="5.5" height="14.4"/>
			<rect x="352.2" y="414.8" transform="matrix(0.8659 -0.5002 0.5002 0.8659 -160.6847 235.7931)" width="14.4" height="5.5"/>
			<g>
				<ellipse class="st3" cx="337.8" cy="379.7" rx="32" ry="32"/>
			</g>
			<polygon points="328.8,361.9 328.5,362.6 327.4,361.9 327.8,362.9 326.4,362.6 326.4,364 325,363.3 325,364.7 324.7,364.3 
				324.7,365 323.7,365.3 324.3,366.4 323.3,365.7 323.3,366.7 321.9,366.4 322.3,367.4 321.3,367.1 321.6,368.1 320.2,367.4 
				320.9,369.1 319.5,368.8 319.9,369.8 318.5,369.8 318.9,370.8 317.8,371.2 318.5,372.2 317.5,372.2 317.8,373.3 316.1,373.9 
				317.1,375 315.8,375.7 316.8,376.3 314.7,376.7 316.4,377.7 315.8,378.4 316.1,379.1 314.7,379.4 315.8,380.5 314.7,381.5 
				315.4,382.2 314.7,382.9 315.8,383.6 315.1,384.6 316.4,384.6 315.4,386 316.4,386.7 315.8,388 317.5,388 316.8,389.1 
				318.2,389.4 317.8,390.8 319.2,390.1 318.9,391.5 320.6,390.8 320.2,392.2 321.6,392.5 321.3,393.9 322.3,393.9 321.9,394.9 
				324.3,393.5 323.7,394.9 324.7,395.3 324.7,396.3 325.4,395.9 325,397.7 326.4,397 326.1,398 326.1,399.4 327.1,398.3 
				327.1,400.1 328.1,398.7 328.5,399.7 329.5,399 329.9,401.1 330.5,399.7 331.2,401.1 332.6,399.7 332.9,400.8 334.3,399.4 
				334.3,400.8 335.7,400.1 336.7,401.8 337.4,400.8 338.4,401.4 338.4,400.1 340.2,400.1 340.5,399.4 340.8,400.4 341.9,399 
				342.9,401.1 343.3,398.7 344.6,400.1 344.6,398 345.7,399 347,397 347.7,398.3 348.1,396.3 349.8,397.7 350.1,395.6 350.5,396.6 
				350.8,394.6 352.2,395.6 352.2,393.2 353.9,394.2 352.9,391.5 354.9,392.8 354.6,390.8 355.6,391.1 355.6,389.4 356.7,389.8 
				356.7,389.1 357.7,389.1 357,387.7 358.4,387.3 357.7,386.7 358.4,386.3 358,385.3 359.1,384.9 358,383.9 359.1,382.9 358,382.2 
				359.1,381.5 358.4,380.5 359.8,379.8 359.1,379.1 360.8,378.8 358.7,378.1 359.8,377.4 358.7,376.7 359.8,375.7 358.4,375.3 
				360.1,374.6 358,373.9 359.1,373.3 357.7,372.6 359.1,371.2 358,371.2 359.1,369.8 357.4,369.8 357.7,368.8 357,368.8 358,366.7 
				356.3,367.4 356.3,366.4 355.3,366.4 355.6,365.3 354.3,365.3 354.9,364.3 353.9,364 354.6,362.6 352.9,362.9 353.6,361.6 
				352.2,361.9 352.5,360.5 351.2,361.2 351.2,359.8 349.8,361.2 350.1,358.8 349.1,359.8 349.1,358.1 348.1,359.5 348.1,357.4 
				347,358.8 346.4,356.4 346,357.8 345,356.8 344.6,357.8 343.9,356.1 343.6,357.8 342.9,356.4 342.2,357.8 341.5,356.8 
				340.8,358.8 340.5,357.4 339.8,359.2 339.1,357.4 338.8,359.2 338.1,357.8 337.8,359.8 336.7,358.8 336.7,360.2 335.4,359.2 
				335.4,360.2 334.3,359.2 334,360.5 333.6,359.2 333.3,360.5 332.6,359.5 332.6,360.9 331.6,359.8 331.6,361.2 330.9,360.9 
				330.5,361.6 329.9,360.5 329.9,361.9 			"/>
		</g>
	</g>
</g>
<g>
	
		<image style="overflow:visible;opacity:0.75;" width="119" height="117" xlink:href="A5D2B3DF.png"  transform="matrix(1 0 0 1 356 213.281)">
	</image>
	<g>
		<g>
			<polygon class="st4" points="367.7,249.1 379,252.9 380,251.2 369.4,245.4 			"/>
			<polygon class="st5" points="367.7,249.1 379,252.9 380,251.2 369.4,245.4 			"/>
			<polygon class="st4" points="447.4,283.9 436.8,278 437.8,276.3 449.1,280.1 			"/>
			<polygon class="st5" points="447.4,283.9 436.8,278 437.8,276.3 449.1,280.1 			"/>
			<g>
				<path class="st4" d="M436.4,276.6c6.9-15.5-0.3-33.3-15.8-40.2c-15.5-6.9-33.3,0.3-40.2,15.8c-6.9,15.5,0.3,33.3,15.8,40.2
					C411.7,299.3,429.5,292.1,436.4,276.6"/>
				<path class="st6" d="M380.3,252.7c6.7-15.5,24.8-22.6,40.3-15.9c15.5,6.7,22.6,24.8,15.9,40.3c-6.7,15.5-24.8,22.6-40.3,15.9
					C380.7,286.3,373.6,268.2,380.3,252.7z"/>
			</g>
			<polygon class="st4" points="393.1,305.5 396.9,293.8 394.8,293.2 389,303.8 			"/>
			<polygon class="st5" points="393.1,305.5 396.9,293.8 394.8,293.2 389,303.8 			"/>
			<polygon class="st4" points="427.8,225.4 422,236.1 419.9,235.4 423.7,223.7 			"/>
			<polygon class="st5" points="427.8,225.4 422,236.1 419.9,235.4 423.7,223.7 			"/>
			<polygon class="st4" points="368.7,282.5 379.7,277.3 378.7,275.3 367,278.7 			"/>
			<polygon class="st5" points="368.7,282.5 379.7,277.3 378.7,275.3 367,278.7 			"/>
			<polygon class="st4" points="449.8,250.5 438.1,254 437.1,251.9 448.1,246.7 			"/>
			<polygon class="st5" points="449.8,250.5 438.1,254 437.1,251.9 448.1,246.7 			"/>
			<polygon class="st4" points="426.5,304.5 420.9,293.5 418.9,294.2 422.3,305.9 			"/>
			<polygon class="st5" points="426.5,304.5 420.9,293.5 418.9,294.2 422.3,305.9 			"/>
			<polygon class="st4" points="394.5,223.4 397.9,235.1 395.9,235.7 390.4,224.7 			"/>
			<polygon class="st5" points="394.5,223.4 397.9,235.1 395.9,235.7 390.4,224.7 			"/>
		</g>
	</g>
</g>
<g>
	
		<image style="overflow:visible;opacity:0.75;" width="505" height="585" xlink:href="A5D2B3DA.png"  transform="matrix(1 0 0 1 56 13.281)">
	</image>
	<g>
		<path d="M173.8,201c30.9,0,60.5,12.4,78.7,33.3c40.2,46.1,26.5,93.5,18.9,111.7l-0.3,1c-12.4,25.8-36.1,44.7-65.7,52.3
			c-28.5,7.6-51.2,27.2-61.9,53.6c-18.2,45.7,4.1,98,49.9,116.2c10.7,4.1,21.7,6.5,33,6.5c36.8,0,69.4-22,83.2-56.4
			c10.7-26.8,7.9-57.1-7.9-81.5c-1.4-2.1-2.8-4.1-3.8-5.8c-14.4-22.3-28.2-43.7-14.8-78.4v-0.3c0.7-1.4,14.4-30.9,45.7-34
			c2.8-0.3,5.5-0.3,8.3-0.3c43,0,59.8,35.1,61.5,65.3c1,22,13.8,42.3,33.7,54.3c11,6.5,23.4,10,36.1,10c25.1,0,47.4-12.7,60.2-34
			c9.6-16.2,12.4-35.1,7.9-53.3c-4.5-18.2-15.8-33.7-32-43.3c-12-7.2-25.4-11-37.8-11c-9.6,0-18.2,2.1-25.8,6.5
			c-8.6,5.2-22.3,11-38.2,11c-14.1,0-34.4-5.2-49.5-29.6c-12.4-19.9-7.6-46.8,3.4-62.9l0.3-0.3c21.3-26.8,47.8-30.6,71.2-30.6
			c5.8,0,11.7,0.3,16.5,0.3c29.2,1.4,56.4-11.3,74.3-34c14.8-18.9,21.3-42.3,18.6-65.7c-2.8-23.7-14.8-45-33.3-59.8
			c-15.8-12.7-35.1-19.3-55.3-19.3c-27.5,0-53.3,12.4-70.1,34c-18.9,24.1-25.1,54.7-15.8,79.8c12.4,34,13.8,57.8-14.8,86.3
			c-13.4,12.4-29.9,18.9-47.1,18.9c-19.3,0-37.5-8.3-52.3-23.7l-0.3-0.7c-23.4-31.6-16.8-53.6-9.3-79.1c0.7-2.1,1.4-4.1,1.7-6.2
			c7.6-26.1,0-56.4-19.9-79.1c-16.8-19.3-41.6-30.6-67.4-30.6c-21.7,0-42.6,7.9-58.8,22.3c-37.1,32.7-40.9,89-8.2,126.2
			c16.8,19.3,41.6,30.6,67.4,30.6c2.8,0,5.8,0,8.9-0.3C166.9,201.4,170.3,201,173.8,201z"/>
	</g>
</g>
<g>
	
		<image style="overflow:visible;opacity:0.75;" width="138" height="138" xlink:href="A5D2B3DB.png"  transform="matrix(1 0 0 1 240 110.281)">
	</image>
	<g>
		<g>
			<path d="M355.3,167c-0.3-3.1-3.1-5.2-6.2-4.8c-2.1,0.3-3.8,1.7-4.5,3.8l-5.5,0.7c-0.7-4.8-2.7-9.6-5.5-14.1l4.5-3.4
				c1.7,1,4.1,1,5.8-0.3c2.4-1.7,3.1-5.2,1-7.6c-1.7-2.4-5.2-3.1-7.6-1c-1.7,1.4-2.4,3.4-2.1,5.5l-4.5,3.4
				c-3.4-4.1-7.2-7.2-11.7-9.3l2.4-5.2c2.1,0,4.1-1.4,5.2-3.4c1.4-2.8,0-6.2-2.7-7.2c-2.8-1.4-6.2,0-7.2,2.7c-1,2.1-0.3,4.1,1,5.8
				l-2.4,5.2c-4.8-1.7-9.6-2.4-14.8-2.4l-0.7-5.8c1.7-1,3.1-3.1,2.7-5.5c-0.3-3.1-3.1-5.2-6.2-4.8c-3.1,0.3-5.2,3.1-4.8,6.2
				c0.3,2.1,1.7,3.8,3.8,4.5l0.7,5.8c-4.8,0.7-9.6,2.8-14.1,5.5l-3.4-4.5c1-1.7,1-4.1-0.3-5.8c-1.7-2.4-5.2-3.1-7.6-1
				c-2.4,1.7-3.1,5.2-1,7.6c1.4,1.7,3.4,2.4,5.5,2.1l3.4,4.5c-4.1,3.4-7.2,7.2-9.3,11.7l-5.2-2.4c0-2.1-1.4-4.1-3.4-5.2
				c-2.7-1.4-6.2,0-7.2,2.8c-1.4,2.7,0,6.2,2.7,7.2c2.1,1,4.1,0.3,5.8-1l5.2,2.4c-1.7,4.8-2.4,9.6-2.4,14.8l-5.8,0.7
				c-1-1.7-3.1-3.1-5.5-2.7c-3.1,0.3-5.2,3.1-4.8,6.2c0.3,3.1,3.1,5.2,6.2,4.8c2.1-0.3,3.8-1.7,4.5-3.8l5.8-0.7
				c0.7,4.8,2.7,9.6,5.5,13.8l-4.5,3.4c-1.7-1-4.1-1-5.8,0.3c-2.4,1.7-3.1,5.2-1,7.6c1.7,2.4,5.2,3.1,7.6,1c1.7-1.4,2.4-3.4,2.1-5.5
				l4.8-3.4c3.4,4.1,7.2,7.2,11.7,9.3l-2.4,5.2c-2.1,0-4.1,1.4-5.2,3.4c-1.4,2.8,0,6.2,2.7,7.2c2.8,1.4,6.2,0,7.2-2.8
				c1-2.1,0.3-4.1-1-5.8l2.4-5.2c4.8,1.7,9.6,2.4,14.8,2.4l0.7,5.8c-1.7,1-3.1,3.1-2.8,5.5c0.3,3.1,3.1,5.2,6.2,4.8
				c3.1-0.3,5.2-3.1,4.8-6.2c-0.3-2.1-1.7-3.8-3.8-4.5l-0.7-5.8c5.5-1,11-3.1,15.8-6.9c10.7-7.6,15.5-19.9,14.8-32l5.8-0.7
				c1,1.7,3.1,3.1,5.5,2.8C353.6,172.8,355.6,170.1,355.3,167z M319.9,196.9c-13.4,9.6-32,6.9-41.6-6.5c-9.6-13.1-6.9-32,6.5-41.6
				c13.1-9.6,32-6.9,41.6,6.5C335.7,168.4,332.9,187.3,319.9,196.9z"/>
			<path d="M302,151.9c-12,0-22,9.3-22,21s10,21,22,21c12,0,22-9.3,22-21S314.4,151.9,302,151.9z M292.4,165.3
				c2.1,0,3.4,1.7,3.4,3.8c0,2.1-1.7,3.8-3.4,3.8c-2.1,0-3.4-1.7-3.4-3.8C288.6,167,290.3,165.3,292.4,165.3z M292.4,187.3
				c-2.1,0-3.4-1.7-3.4-3.8c0-2.1,1.7-3.8,3.4-3.8c2.1,0,3.4,1.7,3.4,3.8C295.8,185.6,294.4,187.3,292.4,187.3z M295.5,163.9
				c-2.1,0-3.4-1.7-3.4-3.8s1.7-3.8,3.4-3.8c2.1,0,3.4,1.7,3.4,3.8S297.5,163.9,295.5,163.9z M301.7,188.3c-2.1,0-3.4-1.7-3.4-3.8
				s1.7-3.8,3.4-3.8c2.1,0,3.4,1.7,3.4,3.8C305.1,186.6,303.4,188.3,301.7,188.3z M304.4,168.7c0-2.1,1.7-3.8,3.4-3.8
				c2.1,0,3.4,1.7,3.4,3.8s-1.7,3.8-3.4,3.8S304.4,170.8,304.4,168.7z M311.3,184.9c-2.1,0-3.4-1.7-3.4-3.8c0-2.1,1.7-3.8,3.4-3.8
				c2.1,0,3.4,1.7,3.4,3.8C314.7,183.1,313,184.9,311.3,184.9z M320.2,167c0,2.1-1.7,3.8-3.4,3.8c-2.1,0-3.4-1.7-3.4-3.8
				c0-2.1,1.7-3.8,3.4-3.8C318.5,163.2,320.2,164.9,320.2,167z"/>
		</g>
	</g>
</g>
</svg>
